<svg version="1" xmlns="http://www.w3.org/2000/svg" width="566.667" height="566.667" viewBox="0 0 425.000000 425.000000"><path d="M208.5 22.1c-2.2 1.2-10.7 6.1-19 10.9-14.1 8.2-50.8 29.4-58.5 33.7-1.9 1.1-21.5 12.4-43.5 25.2l-40 23.1v94.7l-.1 94.8 4.1 2.6c2.2 1.4 6 3.7 8.5 5.1 2.5 1.4 10.1 5.8 17 9.8 6.8 4 14 8.2 16 9.3 1.9 1 11.8 6.8 22 12.7 10.2 5.9 20.5 11.8 23 13.2 2.5 1.4 16 9.2 30 17.3 14 8.1 27.5 15.9 29.9 17.3 2.5 1.4 6.6 3.8 9.3 5.3l4.8 2.8 5.7-3.3c3.2-1.8 17.3-9.9 31.3-18.1 14-8.1 27.6-16 30.2-17.4 2.5-1.4 7.3-4.1 10.5-6 3.2-1.9 7.8-4.5 10.3-5.9 2.5-1.4 5.6-3.3 7-4.2 1.4-.9 3-1.9 3.5-2.1 1-.4 21.6-12.1 24.5-14 4.2-2.6 36.2-20.9 36.7-20.9.3 0 1.5-.8 2.7-1.8l2.1-1.7V115l-21-12.2c-11.5-6.6-22.6-13-24.5-14-7.4-4.3-55.9-32.3-64.5-37.3-4.9-2.9-18.2-10.5-29.5-17s-21.4-12.4-22.5-13.1c-1.8-1.2-2.7-1.1-6 .7zm67.3 62.5c33.9 19.6 62.1 36 62.7 36.5.5.6.4.9-.3.9s-2.5.8-4 1.9c-2.1 1.5-24.8 14.6-48.3 27.9-2.5 1.4-3.7.8-38.3-19.2L211.9 112l-12.7 7.4c-7 4-18.5 10.7-25.7 14.8-7.1 4.1-17.5 10.1-23 13.3-5.5 3.2-10.7 5.8-11.5 5.7-1.4-.1-52.6-29.4-54.1-30.9-.4-.5 15.1-9.9 34.4-21.1 19.4-11.1 48-27.7 63.7-36.7 15.7-9.1 29.1-16.3 29.8-16 .7.3 29.1 16.5 63 36.1zM211.5 168c0 16.4-.5 28.3-1 28.9-.6.5-14 8.4-30 17.5l-29 16.6-.3-27.2c-.1-15 0-27.8.2-28.4.2-.6 5.7-4.1 12.3-7.8 16.5-9.5 18-10.4 33.8-19.5 7.7-4.4 14-8.1 14.1-8.1 0 0 0 12.6-.1 28zm141 48.4c0 41-.2 74.6-.5 74.9-.9.8-18.2 10.7-18.6 10.7-.3 0-3 1.6-6 3.5s-5.6 3.5-5.8 3.5c-.2 0-8 4.4-17.2 9.8-39.4 23-78 45.1-79.3 45.4-1.3.3-1.5-4.2-1.6-31.3v-31.6l10-5.8c5.5-3.2 14.5-8.4 20-11.5 5.5-3.1 14.3-8.2 19.5-11.2 5.2-3 12.7-7.3 16.5-9.5l7-4.1.5-43.1.5-43.1 8.4-5c4.6-2.8 8.5-5 8.6-5 .1 0 8.2-4.7 18.1-10.4 9.8-5.7 18.4-10.5 18.9-10.5.7-.1 1 25.1 1 74.3zm-114.9 8.7c12.6 7.2 19 10.8 27.6 15.7 3.8 2 6.8 3.9 6.8 4.2 0 .5-24.4 14.9-39.9 23.6-3.1 1.7-8.9 5-12.8 7.3l-7.3 4.3-4.7-2.7c-9.8-5.5-13-7.4-21.8-12.5-4.9-2.9-11-6.4-13.5-7.9-7.8-4.5-8.5-4.9-8-5.4.4-.4 10.3-6.1 25-14.5 1.9-1.1 10.5-6 19-10.9 12.8-7.5 15.8-8.9 17.5-8 1.1.5 6.6 3.6 12.1 6.8z"/></svg>